{"title":"The Realm 2011 DVDRip XViD juggs","uid":8776601,"size":744371591,"categoryP":"video","categoryS":"movies","magnet":"?xt=urn:btih:bce1bbe12d89a55da1fab0be882647dadb0b450b&amp;dn=The+Realm+2011+DVDRip+XViD+juggs&amp;tr=udp%3A%2F%2Ftracker.openbittorrent.com%3A80&amp;tr=udp%3A%2F%2Fopen.demonii.com%3A1337&amp;tr=udp%3A%2F%2Ftracker.coppersurfer.tk%3A6969&amp;tr=udp%3A%2F%2Fexodus.desync.com%3A6969","seeders":1,"leechers":0,"uploader":"juggs99","files":3,"time":1375573657,"description":" &lt;a href=&quot;http://www.imdb.com/title/tt2364842&quot; rel=&quot;nofollow&quot; target=&quot;_NEW&quot;&gt;http://www.imdb.com/title/tt2364842&lt;/a&gt;\n\n\nFormat                                   : AVI\nFormat/Info                              : Audio Video Interleave\nFile size                                : 698 MiB\nDuration                                 : 1h 28mn\nOverall bit rate                         : 1 107 Kbps\nWriting library                          : VirtualDub build 32842/release\n\nVideo\nID                                       : 0\nFormat                                   : MPEG-4 Visual\nFormat profile                           : Advanced Simple@L5\nFormat settings, BVOP                    : 2\nFormat settings, QPel                    : No\nFormat settings, GMC                     : No warppoints\nFormat settings, Matrix                  : Default (H.263)\nMuxing mode                              : Packed bitstream\nCodec ID                                 : XVID\nCodec ID/Hint                            : XviD\nDuration                                 : 1h 28mn\nBit rate                                 : 970 Kbps\nWidth                                    : 640 pixels\nHeight                                   : 352 pixels\nDisplay aspect ratio                     : 16:9\nFrame rate                               : 25.000 fps\nColor space                              : YUV\nChroma subsampling                       : 4:2:0\nBit depth                                : 8 bits\nScan type                                : Progressive\nCompression mode                         : Lossy\nBits/(Pixel*Frame)                       : 0.172\nStream size                              : 611 MiB (88%)\nWriting library                          : XviD 64\n\nAudio\nID                                       : 1\nFormat                                   : MPEG Audio\nFormat version                           : Version 1\nFormat profile                           : Layer 3\nCodec ID                                 : 55\nCodec ID/Hint                            : MP3\nDuration                                 : 1h 28mn\nBit rate mode                            : Constant\nBit rate                                 : 128 Kbps\nChannel(s)                               : 2 channels\nSampling rate                            : 48.0 KHz\nCompression mode                         : Lossy\nStream size                              : 80.6 MiB (12%)\nAlignment                                : Split accross interleaves\nInterleave, duration                     : 40 ms (1.00 video frame)\nInterleave, preload duration             : 500 ms\nWriting library                          : LAME3.99r\n &lt;a href=&quot;\nhttp://www.shotpix.com/photos/20130803137556526697084.png&quot; rel=&quot;nofollow&quot; target=&quot;_NEW&quot;&gt;\nhttp://www.shotpix.com/photos/20130803137556526697084.png&lt;/a&gt; &lt;a href=&quot;\nhttp://www.shotpix.com/photos/20130803137556527180693.png&quot; rel=&quot;nofollow&quot; target=&quot;_NEW&quot;&gt;\nhttp://www.shotpix.com/photos/20130803137556527180693.png&lt;/a&gt; &lt;a href=&quot;\nhttp://www.shotpix.com/photos/20130803137556527459602.png&quot; rel=&quot;nofollow&quot; target=&quot;_NEW&quot;&gt;\nhttp://www.shotpix.com/photos/20130803137556527459602.png&lt;/a&gt;","torrent":{"xt":"urn:btih:bce1bbe12d89a55da1fab0be882647dadb0b450b","amp;dn":"The+Realm+2011+DVDRip+XViD+juggs","amp;tr":["udp%3A%2F%2Ftracker.openbittorrent.com%3A80","udp%3A%2F%2Fopen.demonii.com%3A1337","udp%3A%2F%2Ftracker.coppersurfer.tk%3A6969","udp%3A%2F%2Fexodus.desync.com%3A6969"],"infoHash":"bce1bbe12d89a55da1fab0be882647dadb0b450b","infoHashBuffer":{"type":"Buffer","data":[188,225,187,225,45,137,165,93,161,250,176,190,136,38,71,218,219,11,69,11]},"announce":[],"urlList":[]}}